<mxfile host="app.diagrams.net" modified="2024-07-01T01:49:04.116Z" agent="Mozilla/5.0 (Windows NT 10.0; Win64; x64) AppleWebKit/537.36 (KHTML, like Gecko) Chrome/125.0.0.0 Safari/537.36 Edg/125.0.0.0" etag="TBRc3AclMoh9D5Cu7xo-" version="24.6.4" type="device">
  <diagram id="C5RBs43oDa-KdzZeNtuy" name="Page-1">
    <mxGraphModel dx="1426" dy="793" grid="1" gridSize="10" guides="1" tooltips="1" connect="1" arrows="1" fold="1" page="1" pageScale="1" pageWidth="827" pageHeight="1169" math="0" shadow="0">
      <root>
        <mxCell id="WIyWlLk6GJQsqaUBKTNV-0" />
        <mxCell id="WIyWlLk6GJQsqaUBKTNV-1" parent="WIyWlLk6GJQsqaUBKTNV-0" />
        <mxCell id="WIyWlLk6GJQsqaUBKTNV-2" value="" style="rounded=0;html=1;jettySize=auto;orthogonalLoop=1;fontSize=11;endArrow=block;endFill=0;endSize=8;strokeWidth=1;shadow=0;labelBackgroundColor=none;edgeStyle=orthogonalEdgeStyle;entryX=0.5;entryY=0;entryDx=0;entryDy=0;" parent="WIyWlLk6GJQsqaUBKTNV-1" source="WIyWlLk6GJQsqaUBKTNV-3" target="WIyWlLk6GJQsqaUBKTNV-6" edge="1">
          <mxGeometry relative="1" as="geometry">
            <mxPoint x="400" y="160" as="targetPoint" />
          </mxGeometry>
        </mxCell>
        <mxCell id="WIyWlLk6GJQsqaUBKTNV-3" value="Ir Al Home" style="rounded=1;whiteSpace=wrap;html=1;fontSize=12;glass=0;strokeWidth=1;shadow=0;" parent="WIyWlLk6GJQsqaUBKTNV-1" vertex="1">
          <mxGeometry x="340" y="80" width="120" height="40" as="geometry" />
        </mxCell>
        <mxCell id="WIyWlLk6GJQsqaUBKTNV-4" value="Si" style="rounded=0;html=1;jettySize=auto;orthogonalLoop=1;fontSize=11;endArrow=block;endFill=0;endSize=8;strokeWidth=1;shadow=0;labelBackgroundColor=none;edgeStyle=orthogonalEdgeStyle;exitX=0;exitY=0.5;exitDx=0;exitDy=0;entryX=0.5;entryY=0;entryDx=0;entryDy=0;" parent="WIyWlLk6GJQsqaUBKTNV-1" source="WIyWlLk6GJQsqaUBKTNV-6" target="Usmgb4cywin7En2yfEjr-2" edge="1">
          <mxGeometry x="-0.8974" y="10" relative="1" as="geometry">
            <mxPoint as="offset" />
            <mxPoint x="480" y="380" as="sourcePoint" />
            <mxPoint x="80" y="220" as="targetPoint" />
          </mxGeometry>
        </mxCell>
        <mxCell id="WIyWlLk6GJQsqaUBKTNV-5" value="No" style="edgeStyle=orthogonalEdgeStyle;rounded=0;html=1;jettySize=auto;orthogonalLoop=1;fontSize=11;endArrow=block;endFill=0;endSize=8;strokeWidth=1;shadow=0;labelBackgroundColor=none;exitX=1;exitY=0.5;exitDx=0;exitDy=0;entryX=0.5;entryY=0;entryDx=0;entryDy=0;" parent="WIyWlLk6GJQsqaUBKTNV-1" source="WIyWlLk6GJQsqaUBKTNV-6" target="WIyWlLk6GJQsqaUBKTNV-12" edge="1">
          <mxGeometry x="-0.8261" y="-10" relative="1" as="geometry">
            <mxPoint as="offset" />
            <mxPoint x="750" y="260" as="sourcePoint" />
            <mxPoint x="640" y="240" as="targetPoint" />
          </mxGeometry>
        </mxCell>
        <mxCell id="WIyWlLk6GJQsqaUBKTNV-6" value="Estas&amp;nbsp;&lt;div&gt;Logueado&lt;/div&gt;" style="rhombus;whiteSpace=wrap;html=1;shadow=0;fontFamily=Helvetica;fontSize=12;align=center;strokeWidth=1;spacing=6;spacingTop=-4;" parent="WIyWlLk6GJQsqaUBKTNV-1" vertex="1">
          <mxGeometry x="350" y="160" width="100" height="80" as="geometry" />
        </mxCell>
        <mxCell id="Usmgb4cywin7En2yfEjr-2" value="Home" style="rounded=1;whiteSpace=wrap;html=1;fontSize=12;glass=0;strokeWidth=1;shadow=0;" parent="WIyWlLk6GJQsqaUBKTNV-1" vertex="1">
          <mxGeometry x="100" y="500" width="120" height="40" as="geometry" />
        </mxCell>
        <mxCell id="Usmgb4cywin7En2yfEjr-6" value="Contraseña&lt;div&gt;Correcta&lt;/div&gt;" style="rhombus;whiteSpace=wrap;html=1;shadow=0;fontFamily=Helvetica;fontSize=12;align=center;strokeWidth=1;spacing=6;spacingTop=-4;" parent="WIyWlLk6GJQsqaUBKTNV-1" vertex="1">
          <mxGeometry x="424" y="480" width="100" height="80" as="geometry" />
        </mxCell>
        <mxCell id="Usmgb4cywin7En2yfEjr-7" value="" style="rounded=0;html=1;jettySize=auto;orthogonalLoop=1;fontSize=11;endArrow=block;endFill=0;endSize=8;strokeWidth=1;shadow=0;labelBackgroundColor=none;edgeStyle=orthogonalEdgeStyle;entryX=0.5;entryY=0;entryDx=0;entryDy=0;exitX=0.5;exitY=1;exitDx=0;exitDy=0;" parent="WIyWlLk6GJQsqaUBKTNV-1" source="WIyWlLk6GJQsqaUBKTNV-12" target="Usmgb4cywin7En2yfEjr-6" edge="1">
          <mxGeometry relative="1" as="geometry">
            <mxPoint x="370" y="460" as="sourcePoint" />
            <mxPoint x="810" y="410" as="targetPoint" />
          </mxGeometry>
        </mxCell>
        <mxCell id="Usmgb4cywin7En2yfEjr-10" value="No" style="rounded=0;html=1;jettySize=auto;orthogonalLoop=1;fontSize=11;endArrow=block;endFill=0;endSize=8;strokeWidth=1;shadow=0;labelBackgroundColor=none;edgeStyle=orthogonalEdgeStyle;exitX=1;exitY=0.5;exitDx=0;exitDy=0;" parent="WIyWlLk6GJQsqaUBKTNV-1" source="Usmgb4cywin7En2yfEjr-6" target="Usmgb4cywin7En2yfEjr-13" edge="1">
          <mxGeometry x="-0.7333" y="-10" relative="1" as="geometry">
            <mxPoint as="offset" />
            <mxPoint x="610" y="510" as="sourcePoint" />
            <mxPoint x="720" y="550" as="targetPoint" />
          </mxGeometry>
        </mxCell>
        <mxCell id="Usmgb4cywin7En2yfEjr-11" value="Si" style="edgeStyle=orthogonalEdgeStyle;rounded=0;html=1;jettySize=auto;orthogonalLoop=1;fontSize=11;endArrow=block;endFill=0;endSize=8;strokeWidth=1;shadow=0;labelBackgroundColor=none;exitX=0;exitY=0.5;exitDx=0;exitDy=0;entryX=1;entryY=0.5;entryDx=0;entryDy=0;" parent="WIyWlLk6GJQsqaUBKTNV-1" source="Usmgb4cywin7En2yfEjr-6" target="Usmgb4cywin7En2yfEjr-2" edge="1">
          <mxGeometry x="-0.8305" y="10" relative="1" as="geometry">
            <mxPoint as="offset" />
            <mxPoint x="360" y="580" as="sourcePoint" />
            <mxPoint x="170" y="690" as="targetPoint" />
          </mxGeometry>
        </mxCell>
        <mxCell id="Usmgb4cywin7En2yfEjr-12" value="Cambiar Contraseña" style="rounded=1;whiteSpace=wrap;html=1;fontSize=12;glass=0;strokeWidth=1;shadow=0;" parent="WIyWlLk6GJQsqaUBKTNV-1" vertex="1">
          <mxGeometry x="610" y="670" width="120" height="40" as="geometry" />
        </mxCell>
        <mxCell id="Usmgb4cywin7En2yfEjr-13" value="Recuperar Contraseña" style="rounded=1;whiteSpace=wrap;html=1;fontSize=12;glass=0;strokeWidth=1;shadow=0;" parent="WIyWlLk6GJQsqaUBKTNV-1" vertex="1">
          <mxGeometry x="610" y="565" width="120" height="40" as="geometry" />
        </mxCell>
        <mxCell id="Usmgb4cywin7En2yfEjr-14" value="" style="rounded=0;html=1;jettySize=auto;orthogonalLoop=1;fontSize=11;endArrow=block;endFill=0;endSize=8;strokeWidth=1;shadow=0;labelBackgroundColor=none;edgeStyle=orthogonalEdgeStyle;entryX=0.5;entryY=0;entryDx=0;entryDy=0;exitX=0.5;exitY=1;exitDx=0;exitDy=0;" parent="WIyWlLk6GJQsqaUBKTNV-1" source="Usmgb4cywin7En2yfEjr-13" target="Usmgb4cywin7En2yfEjr-12" edge="1">
          <mxGeometry relative="1" as="geometry">
            <mxPoint x="810" y="370" as="sourcePoint" />
            <mxPoint x="810" y="410" as="targetPoint" />
          </mxGeometry>
        </mxCell>
        <mxCell id="Usmgb4cywin7En2yfEjr-17" value="&lt;div&gt;VALIDAR&lt;/div&gt;MAIL" style="text;html=1;align=center;verticalAlign=middle;whiteSpace=wrap;rounded=0;" parent="WIyWlLk6GJQsqaUBKTNV-1" vertex="1">
          <mxGeometry x="680" y="620" width="60" height="30" as="geometry" />
        </mxCell>
        <mxCell id="Usmgb4cywin7En2yfEjr-22" value="Entrar al sitio web" style="swimlane;horizontal=0;whiteSpace=wrap;html=1;" parent="WIyWlLk6GJQsqaUBKTNV-1" vertex="1">
          <mxGeometry x="50" y="40" width="830" height="720" as="geometry" />
        </mxCell>
        <mxCell id="WIyWlLk6GJQsqaUBKTNV-12" value="Iniciar Sesion" style="rounded=1;whiteSpace=wrap;html=1;fontSize=12;glass=0;strokeWidth=1;shadow=0;" parent="Usmgb4cywin7En2yfEjr-22" vertex="1">
          <mxGeometry x="570" y="220" width="120" height="40" as="geometry" />
        </mxCell>
        <mxCell id="Usmgb4cywin7En2yfEjr-26" value="" style="rounded=0;html=1;jettySize=auto;orthogonalLoop=1;fontSize=11;endArrow=block;endFill=0;endSize=8;strokeWidth=1;shadow=0;labelBackgroundColor=none;edgeStyle=orthogonalEdgeStyle;entryX=0;entryY=0.5;entryDx=0;entryDy=0;exitX=1;exitY=0.5;exitDx=0;exitDy=0;" parent="WIyWlLk6GJQsqaUBKTNV-1" source="Usmgb4cywin7En2yfEjr-25" target="Usmgb4cywin7En2yfEjr-27" edge="1">
          <mxGeometry relative="1" as="geometry">
            <mxPoint x="340" y="1000" as="sourcePoint" />
            <mxPoint x="400" y="1000" as="targetPoint" />
          </mxGeometry>
        </mxCell>
        <mxCell id="Usmgb4cywin7En2yfEjr-27" value="Seleccionar Materia" style="rounded=1;whiteSpace=wrap;html=1;fontSize=12;glass=0;strokeWidth=1;shadow=0;" parent="WIyWlLk6GJQsqaUBKTNV-1" vertex="1">
          <mxGeometry x="440" y="880" width="120" height="40" as="geometry" />
        </mxCell>
        <mxCell id="Usmgb4cywin7En2yfEjr-29" value="" style="rounded=0;html=1;jettySize=auto;orthogonalLoop=1;fontSize=11;endArrow=block;endFill=0;endSize=8;strokeWidth=1;shadow=0;labelBackgroundColor=none;edgeStyle=orthogonalEdgeStyle;entryX=0.5;entryY=0;entryDx=0;entryDy=0;exitX=0.5;exitY=1;exitDx=0;exitDy=0;" parent="WIyWlLk6GJQsqaUBKTNV-1" source="Usmgb4cywin7En2yfEjr-27" target="Usmgb4cywin7En2yfEjr-33" edge="1">
          <mxGeometry relative="1" as="geometry">
            <mxPoint x="490" y="1020" as="sourcePoint" />
            <mxPoint x="550" y="1020" as="targetPoint" />
          </mxGeometry>
        </mxCell>
        <mxCell id="Usmgb4cywin7En2yfEjr-31" value="Buscar por titulo" style="rounded=1;whiteSpace=wrap;html=1;fontSize=12;glass=0;strokeWidth=1;shadow=0;" parent="WIyWlLk6GJQsqaUBKTNV-1" vertex="1">
          <mxGeometry x="260" y="1040" width="120" height="40" as="geometry" />
        </mxCell>
        <mxCell id="Usmgb4cywin7En2yfEjr-32" value="Seleccionar&lt;br&gt;categoria" style="rounded=1;whiteSpace=wrap;html=1;fontSize=12;glass=0;strokeWidth=1;shadow=0;" parent="WIyWlLk6GJQsqaUBKTNV-1" vertex="1">
          <mxGeometry x="620" y="1040" width="120" height="40" as="geometry" />
        </mxCell>
        <mxCell id="Usmgb4cywin7En2yfEjr-33" value="Buscar" style="rhombus;whiteSpace=wrap;html=1;shadow=0;fontFamily=Helvetica;fontSize=12;align=center;strokeWidth=1;spacing=6;spacingTop=-4;" parent="WIyWlLk6GJQsqaUBKTNV-1" vertex="1">
          <mxGeometry x="450" y="960" width="100" height="80" as="geometry" />
        </mxCell>
        <mxCell id="Usmgb4cywin7En2yfEjr-34" value="No" style="rounded=0;html=1;jettySize=auto;orthogonalLoop=1;fontSize=11;endArrow=block;endFill=0;endSize=8;strokeWidth=1;shadow=0;labelBackgroundColor=none;edgeStyle=orthogonalEdgeStyle;exitX=1;exitY=0.5;exitDx=0;exitDy=0;entryX=0.5;entryY=0;entryDx=0;entryDy=0;" parent="WIyWlLk6GJQsqaUBKTNV-1" source="Usmgb4cywin7En2yfEjr-33" target="Usmgb4cywin7En2yfEjr-32" edge="1">
          <mxGeometry x="-0.7333" y="-10" relative="1" as="geometry">
            <mxPoint as="offset" />
            <mxPoint x="566.75" y="960" as="sourcePoint" />
            <mxPoint x="712.75" y="1005" as="targetPoint" />
          </mxGeometry>
        </mxCell>
        <mxCell id="Usmgb4cywin7En2yfEjr-35" value="Si" style="edgeStyle=orthogonalEdgeStyle;rounded=0;html=1;jettySize=auto;orthogonalLoop=1;fontSize=11;endArrow=block;endFill=0;endSize=8;strokeWidth=1;shadow=0;labelBackgroundColor=none;exitX=0;exitY=0.5;exitDx=0;exitDy=0;entryX=0.5;entryY=0;entryDx=0;entryDy=0;" parent="WIyWlLk6GJQsqaUBKTNV-1" source="Usmgb4cywin7En2yfEjr-33" target="Usmgb4cywin7En2yfEjr-31" edge="1">
          <mxGeometry x="-0.8305" y="10" relative="1" as="geometry">
            <mxPoint as="offset" />
            <mxPoint x="484" y="1120" as="sourcePoint" />
            <mxPoint x="280" y="1120" as="targetPoint" />
          </mxGeometry>
        </mxCell>
        <mxCell id="Usmgb4cywin7En2yfEjr-37" value="" style="rounded=0;html=1;jettySize=auto;orthogonalLoop=1;fontSize=11;endArrow=block;endFill=0;endSize=8;strokeWidth=1;shadow=0;labelBackgroundColor=none;edgeStyle=orthogonalEdgeStyle;exitX=0.5;exitY=1;exitDx=0;exitDy=0;entryX=0;entryY=0.75;entryDx=0;entryDy=0;" parent="WIyWlLk6GJQsqaUBKTNV-1" source="Usmgb4cywin7En2yfEjr-31" target="Usmgb4cywin7En2yfEjr-36" edge="1">
          <mxGeometry relative="1" as="geometry">
            <mxPoint x="280" y="1190" as="sourcePoint" />
            <mxPoint x="320" y="1240" as="targetPoint" />
          </mxGeometry>
        </mxCell>
        <mxCell id="Usmgb4cywin7En2yfEjr-38" value="" style="rounded=0;html=1;jettySize=auto;orthogonalLoop=1;fontSize=11;endArrow=block;endFill=0;endSize=8;strokeWidth=1;shadow=0;labelBackgroundColor=none;edgeStyle=orthogonalEdgeStyle;exitX=0.5;exitY=1;exitDx=0;exitDy=0;entryX=0.5;entryY=0;entryDx=0;entryDy=0;" parent="WIyWlLk6GJQsqaUBKTNV-1" source="Usmgb4cywin7En2yfEjr-32" target="4OKN1L5XqAfi5NnzTtXU-0" edge="1">
          <mxGeometry relative="1" as="geometry">
            <mxPoint x="609.5" y="1150" as="sourcePoint" />
            <mxPoint x="680" y="1170" as="targetPoint" />
          </mxGeometry>
        </mxCell>
        <mxCell id="Usmgb4cywin7En2yfEjr-51" value="Proceso de descarga" style="swimlane;horizontal=0;whiteSpace=wrap;html=1;" parent="WIyWlLk6GJQsqaUBKTNV-1" vertex="1">
          <mxGeometry x="50" y="840" width="910" height="820" as="geometry" />
        </mxCell>
        <mxCell id="Usmgb4cywin7En2yfEjr-25" value="Home" style="rounded=1;whiteSpace=wrap;html=1;fontSize=12;glass=0;strokeWidth=1;shadow=0;" parent="Usmgb4cywin7En2yfEjr-51" vertex="1">
          <mxGeometry x="190" y="40" width="120" height="40" as="geometry" />
        </mxCell>
        <mxCell id="Usmgb4cywin7En2yfEjr-39" value="Detalles Del Libro" style="rounded=1;whiteSpace=wrap;html=1;fontSize=12;glass=0;strokeWidth=1;shadow=0;" parent="Usmgb4cywin7En2yfEjr-51" vertex="1">
          <mxGeometry x="390" y="530" width="120" height="40" as="geometry" />
        </mxCell>
        <mxCell id="Usmgb4cywin7En2yfEjr-42" value="" style="rounded=0;html=1;jettySize=auto;orthogonalLoop=1;fontSize=11;endArrow=block;endFill=0;endSize=8;strokeWidth=1;shadow=0;labelBackgroundColor=none;edgeStyle=orthogonalEdgeStyle;exitX=0.5;exitY=1;exitDx=0;exitDy=0;entryX=0.5;entryY=0;entryDx=0;entryDy=0;" parent="Usmgb4cywin7En2yfEjr-51" source="Usmgb4cywin7En2yfEjr-39" target="Usmgb4cywin7En2yfEjr-43" edge="1">
          <mxGeometry relative="1" as="geometry">
            <mxPoint x="460" y="470" as="sourcePoint" />
            <mxPoint x="450" y="640" as="targetPoint" />
          </mxGeometry>
        </mxCell>
        <mxCell id="Usmgb4cywin7En2yfEjr-43" value="Descarga&lt;div&gt;Disponible&lt;/div&gt;" style="rhombus;whiteSpace=wrap;html=1;shadow=0;fontFamily=Helvetica;fontSize=12;align=center;strokeWidth=1;spacing=6;spacingTop=-4;" parent="Usmgb4cywin7En2yfEjr-51" vertex="1">
          <mxGeometry x="400" y="620" width="100" height="80" as="geometry" />
        </mxCell>
        <mxCell id="Usmgb4cywin7En2yfEjr-46" value="No" style="rounded=0;html=1;jettySize=auto;orthogonalLoop=1;fontSize=11;endArrow=block;endFill=0;endSize=8;strokeWidth=1;shadow=0;labelBackgroundColor=none;edgeStyle=orthogonalEdgeStyle;exitX=1;exitY=0.5;exitDx=0;exitDy=0;entryX=0.5;entryY=0;entryDx=0;entryDy=0;" parent="Usmgb4cywin7En2yfEjr-51" source="Usmgb4cywin7En2yfEjr-43" target="Usmgb4cywin7En2yfEjr-49" edge="1">
          <mxGeometry x="-0.7333" y="-10" relative="1" as="geometry">
            <mxPoint as="offset" />
            <mxPoint x="554.75" y="650" as="sourcePoint" />
            <mxPoint x="640" y="720" as="targetPoint" />
          </mxGeometry>
        </mxCell>
        <mxCell id="Usmgb4cywin7En2yfEjr-47" value="Si" style="edgeStyle=orthogonalEdgeStyle;rounded=0;html=1;jettySize=auto;orthogonalLoop=1;fontSize=11;endArrow=block;endFill=0;endSize=8;strokeWidth=1;shadow=0;labelBackgroundColor=none;exitX=0;exitY=0.5;exitDx=0;exitDy=0;entryX=0.5;entryY=0;entryDx=0;entryDy=0;" parent="Usmgb4cywin7En2yfEjr-51" source="Usmgb4cywin7En2yfEjr-43" target="Usmgb4cywin7En2yfEjr-48" edge="1">
          <mxGeometry x="-0.8305" y="10" relative="1" as="geometry">
            <mxPoint as="offset" />
            <mxPoint x="300" y="640" as="sourcePoint" />
            <mxPoint x="170" y="680" as="targetPoint" />
          </mxGeometry>
        </mxCell>
        <mxCell id="Usmgb4cywin7En2yfEjr-48" value="Descargar" style="rounded=1;whiteSpace=wrap;html=1;fontSize=12;glass=0;strokeWidth=1;shadow=0;" parent="Usmgb4cywin7En2yfEjr-51" vertex="1">
          <mxGeometry x="210" y="700" width="120" height="40" as="geometry" />
        </mxCell>
        <mxCell id="Usmgb4cywin7En2yfEjr-49" value="Error" style="rounded=1;whiteSpace=wrap;html=1;fontSize=12;glass=0;strokeWidth=1;shadow=0;" parent="Usmgb4cywin7En2yfEjr-51" vertex="1">
          <mxGeometry x="570" y="700" width="120" height="40" as="geometry" />
        </mxCell>
        <mxCell id="Usmgb4cywin7En2yfEjr-50" value="" style="rounded=0;html=1;jettySize=auto;orthogonalLoop=1;fontSize=11;endArrow=block;endFill=0;endSize=8;strokeWidth=1;shadow=0;labelBackgroundColor=none;edgeStyle=orthogonalEdgeStyle;exitX=1;exitY=0.5;exitDx=0;exitDy=0;entryX=1;entryY=0.5;entryDx=0;entryDy=0;" parent="Usmgb4cywin7En2yfEjr-51" source="Usmgb4cywin7En2yfEjr-49" target="Usmgb4cywin7En2yfEjr-39" edge="1">
          <mxGeometry relative="1" as="geometry">
            <mxPoint x="700" y="590" as="sourcePoint" />
            <mxPoint x="700" y="640" as="targetPoint" />
          </mxGeometry>
        </mxCell>
        <mxCell id="Usmgb4cywin7En2yfEjr-36" value="Seleccionar Libro" style="rounded=1;whiteSpace=wrap;html=1;fontSize=12;glass=0;strokeWidth=1;shadow=0;" parent="Usmgb4cywin7En2yfEjr-51" vertex="1">
          <mxGeometry x="390" y="430" width="120" height="40" as="geometry" />
        </mxCell>
        <mxCell id="Usmgb4cywin7En2yfEjr-40" value="" style="rounded=0;html=1;jettySize=auto;orthogonalLoop=1;fontSize=11;endArrow=block;endFill=0;endSize=8;strokeWidth=1;shadow=0;labelBackgroundColor=none;edgeStyle=orthogonalEdgeStyle;exitX=0.5;exitY=1;exitDx=0;exitDy=0;entryX=0.5;entryY=0;entryDx=0;entryDy=0;" parent="Usmgb4cywin7En2yfEjr-51" source="Usmgb4cywin7En2yfEjr-36" target="Usmgb4cywin7En2yfEjr-39" edge="1">
          <mxGeometry relative="1" as="geometry">
            <mxPoint x="700" y="390" as="sourcePoint" />
            <mxPoint x="540" y="350" as="targetPoint" />
          </mxGeometry>
        </mxCell>
        <mxCell id="4OKN1L5XqAfi5NnzTtXU-3" style="edgeStyle=orthogonalEdgeStyle;rounded=0;orthogonalLoop=1;jettySize=auto;html=1;entryX=0.5;entryY=0;entryDx=0;entryDy=0;" edge="1" parent="Usmgb4cywin7En2yfEjr-51" source="4OKN1L5XqAfi5NnzTtXU-0" target="4OKN1L5XqAfi5NnzTtXU-1">
          <mxGeometry relative="1" as="geometry" />
        </mxCell>
        <mxCell id="4OKN1L5XqAfi5NnzTtXU-0" value="Seleccionar&lt;br&gt;Género" style="rounded=1;whiteSpace=wrap;html=1;fontSize=12;glass=0;strokeWidth=1;shadow=0;" vertex="1" parent="Usmgb4cywin7En2yfEjr-51">
          <mxGeometry x="570" y="300" width="120" height="40" as="geometry" />
        </mxCell>
        <mxCell id="4OKN1L5XqAfi5NnzTtXU-5" style="edgeStyle=orthogonalEdgeStyle;rounded=0;orthogonalLoop=1;jettySize=auto;html=1;entryX=1;entryY=0.75;entryDx=0;entryDy=0;" edge="1" parent="Usmgb4cywin7En2yfEjr-51" source="4OKN1L5XqAfi5NnzTtXU-1" target="Usmgb4cywin7En2yfEjr-36">
          <mxGeometry relative="1" as="geometry" />
        </mxCell>
        <mxCell id="4OKN1L5XqAfi5NnzTtXU-1" value="Seleccionar&lt;br&gt;índice de libro" style="rounded=1;whiteSpace=wrap;html=1;fontSize=12;glass=0;strokeWidth=1;shadow=0;" vertex="1" parent="Usmgb4cywin7En2yfEjr-51">
          <mxGeometry x="740" y="370" width="120" height="40" as="geometry" />
        </mxCell>
        <mxCell id="CwhW4Ogct83-1JeuO3MG-0" value="" style="rounded=0;html=1;jettySize=auto;orthogonalLoop=1;fontSize=11;endArrow=block;endFill=0;endSize=8;strokeWidth=1;shadow=0;labelBackgroundColor=none;edgeStyle=orthogonalEdgeStyle;entryX=0.75;entryY=1;entryDx=0;entryDy=0;exitX=1;exitY=0.5;exitDx=0;exitDy=0;" parent="WIyWlLk6GJQsqaUBKTNV-1" source="Usmgb4cywin7En2yfEjr-12" target="WIyWlLk6GJQsqaUBKTNV-12" edge="1">
          <mxGeometry relative="1" as="geometry">
            <mxPoint x="680" y="615" as="sourcePoint" />
            <mxPoint x="680" y="680" as="targetPoint" />
          </mxGeometry>
        </mxCell>
      </root>
    </mxGraphModel>
  </diagram>
</mxfile>
